<?xml version="1.0" encoding="UTF-8"?>
<svg id="Layer_1" data-name="Layer 1" xmlns="http://www.w3.org/2000/svg" width="420.72" height="68.4" version="1.1" viewBox="0 0 420.72 68.4">
  <defs>
    <style>
      .cls-1 {
        fill: #efebe2;
        stroke-width: 0px;
      }
    </style>
  </defs>
  <path class="cls-1" d="M418.7199707,2v64.4000244H2V2h416.7199707M420.7199707,0H0v68.4000244h420.7199707V0h0Z"/>
  <g>
    <path class="cls-1" d="M55.644043,19.347168c-3.4067383.3505859-4.1079102.8515625-6.0117188,5.4101562-1.4023438,3.3564453-6.5620117,15.8305664-10.3691406,26.1499023h-1.7036133c-3.355957-9.1679688-7.6142578-20.1884766-10.3193359-27.0517578-1.5029297-3.7568359-2.3041992-4.2080078-5.3100586-4.5083008v-1.5029297h12.7744141v1.5029297c-3.6069336.4008789-3.7070312.8012695-2.9560547,2.9555664,1.3525391,3.6567383,5.0595703,13.4257812,8.1157227,21.3408203h.1000977c2.6049805-6.4628906,6.0615234-15.4799805,7.6142578-20.3891602,1.0019531-3.0053711.7514648-3.456543-3.3061523-3.9072266v-1.5029297h11.371582v1.5029297Z"/>
    <path class="cls-1" d="M62.347385,50.40625v-1.453125c4.0073242-.2998047,4.4580078-.6005859,4.4580078-4.859375v-19.8876953c0-4.2578125-.4506836-4.5585938-4.4580078-4.9091797v-1.4526367h13.5751953v1.4526367c-4.0073242.3505859-4.4580078.6513672-4.4580078,4.9091797v19.8876953c0,4.2587891.4506836,4.5595703,4.4580078,4.859375v1.453125h-13.5751953Z"/>
    <path class="cls-1" d="M108.5952148,42.4414062c-.300293,1.6523438-1.3525391,6.4619141-1.8032227,7.9648438h-22.9936523v-1.453125c4.2080078-.2998047,4.6586914-.6503906,4.6586914-4.9091797v-19.8876953c0-4.2583008-.3505859-4.5087891-4.4082031-4.859375v-1.4526367h13.4755859v1.4526367c-3.9072266.3007812-4.4082031.5512695-4.4082031,4.859375v19.7373047c0,2.6552734.2504883,3.6074219,1.2021484,4.1083984.9516602.5507812,2.6049805.6005859,4.6088867.6005859,2.6547852,0,4.3579102-.25,5.5102539-1.5527344.9018555-1.0019531,1.8032227-2.6054688,2.6049805-4.9599609l1.5527344.3515625Z"/>
    <path class="cls-1" d="M140.1600477,42.4414062c-.300293,1.6523438-1.3525391,6.4619141-1.8032227,7.9648438h-22.9936523v-1.453125c4.2080078-.2998047,4.6586914-.6503906,4.6586914-4.9091797v-19.8876953c0-4.2583008-.3505859-4.5087891-4.4082031-4.859375v-1.4526367h13.4755859v1.4526367c-3.9072266.3007812-4.4082031.5512695-4.4082031,4.859375v19.7373047c0,2.6552734.2504883,3.6074219,1.2021484,4.1083984.9516602.5507812,2.6049805.6005859,4.6083984.6005859,2.6552734,0,4.3583984-.25,5.5107422-1.5527344.9013672-1.0019531,1.8032227-2.6054688,2.6049805-4.9599609l1.5527344.3515625Z"/>
    <path class="cls-1" d="M163.38227,50.40625v-1.453125c3.105957-.4003906,3.5068359-.8515625,2.8554688-2.8554688-.6010742-1.9033203-1.5527344-4.4580078-2.6049805-7.3632812h-10.5200195c-.7509766,2.1533203-1.4526367,4.2080078-2.1040039,6.2617188-1.0014648,3.0556641-.6508789,3.5566406,3.105957,3.9570312v1.453125h-10.9707031v-1.453125c3.2563477-.4501953,3.9077148-.8007812,5.6606445-5.2099609l10.3198242-26.1494141,1.7529297-.5009766c3.105957,8.6162109,6.4624023,18.0341797,9.668457,26.7011719,1.5527344,4.3076172,2.2543945,4.8085938,5.5102539,5.1591797v1.453125h-12.6738281ZM158.6234809,24.105957h-.1503906c-1.5527344,4.1582031-3.0556641,8.3657227-4.5585938,12.4243164h8.9667969l-4.2578125-12.4243164Z"/>
    <path class="cls-1" d="M211.4588759,36.6796875c-2.9057617.4511719-3.1567383.7021484-3.1567383,3.7070312v4.2080078c0,1.7539062.0507812,3.3564453.3505859,4.7089844-3.0556641.7519531-7.2636719,1.8535156-11.2207031,1.8535156-11.1713867,0-18.5351562-6.8125-18.5351562-16.78125,0-11.5722656,9.3178711-17.2832031,19.2363281-17.2832031,4.2080078,0,8.015625,1.1020508,9.6679688,1.4526367.1503906,1.7036133.4013672,4.4584961.8017578,7.9150391l-1.5029297.3007812c-1.2021484-6.0117188-4.9589844-7.8149414-9.7680664-7.8149414-7.3139648,0-12.8745117,5.6108398-12.8745117,14.777832,0,7.3139648,4.1577148,15.6303711,13.5756836,15.6303711,1.5527344,0,3.0561523-.3007812,4.0581055-.8515625.9511719-.5009766,1.5019531-1.2021484,1.5019531-3.15625v-4.3583984c0-3.6064453-.2998047-3.9072266-5.2597656-4.3085938v-1.4521484h13.1254883v1.4521484Z"/>
    <path class="cls-1" d="M244.2675781,42.4414062c-.25,1.7529297-1.3017578,6.4121094-1.703125,7.9648438h-24.4462891v-1.453125c4.5087891-.3505859,4.9599609-.7509766,4.9599609-4.859375v-19.7871094c0-4.4584961-.4511719-4.6591797-4.2587891-5.0097656v-1.4526367h22.5429688c0,1.2021484.2509766,4.6088867.4511719,7.2636719l-1.5527344.2504883c-.4511719-2.0537109-1.0019531-3.2558594-1.6533203-4.2578125-.7519531-1.1020508-2.1044922-1.453125-5.5605469-1.453125h-3.5566406c-1.6035156,0-1.7539062.1503906-1.7539062,1.6533203v11.2714844h4.5087891c4.4580078,0,4.8095703-.4008789,5.4101562-3.7573242h1.5029297v9.668457h-1.5029297c-.6513672-3.5566406-1.0517578-3.8574219-5.4101562-3.8574219h-4.5087891v9.2675781c0,2.3544922.3007812,3.5068359,1.2021484,4.1083984.9521484.6005859,2.7050781.6005859,5.1103516.6005859,3.6064453,0,5.0595703-.4003906,6.1611328-1.6533203.9023438-1.0517578,1.8037109-2.7548828,2.5546875-4.7587891l1.5029297.2509766Z"/>
  </g>
  <g>
    <path class="cls-1" d="M266.1396484,29.4858398h-1.9609375v-4.2602539h-4.5498047v4.2602539h-1.9619141v-9.6464844h1.9619141v3.7299805h4.5498047v-3.7299805h1.9609375v9.6464844Z"/>
    <path class="cls-1" d="M280.5136719,29.4858398h-1.9619141l-.9648438-2.3793945h-3.9384766l-.9648438,2.3793945h-1.8974609l4.0996094-9.6464844h1.5283203l4.0996094,9.6464844ZM277.0322266,25.7397461l-1.4140625-3.4868164-1.4150391,3.4868164h2.8291016Z"/>
    <path class="cls-1" d="M293.3427734,29.4858398h-1.3671875l-5.0478516-6.3666992v6.3666992h-1.7529297v-9.6464844h1.3681641l5.046875,6.3652344v-6.3652344h1.7529297v9.6464844Z"/>
    <path class="cls-1" d="M306.4462891,21.1821289c.9101562.8950195,1.3662109,2.0551758,1.3662109,3.4804688,0,1.4257812-.4560547,2.5859375-1.3662109,3.480957-.9111328.8950195-2.2832031,1.3422852-4.1162109,1.3422852h-3.3925781v-9.6464844h3.3925781c1.8330078,0,3.2050781.4477539,4.1162109,1.3427734ZM305.8027344,24.6625977c0-2.1650391-1.1894531-3.2475586-3.5693359-3.2475586h-1.3339844v6.4951172h1.3339844c2.3798828,0,3.5693359-1.0825195,3.5693359-3.2475586Z"/>
    <path class="cls-1" d="M320.9951172,28.7143555c-.8574219.6538086-1.9775391.9804688-3.3603516.9804688-1.4472656,0-2.671875-.4609375-3.6738281-1.3828125-1.0019531-.9213867-1.5029297-2.1381836-1.5029297-3.6494141s.5009766-2.7275391,1.5029297-3.6494141,2.2265625-1.3828125,3.6738281-1.3828125c1.3828125,0,2.5029297.3271484,3.3603516.980957v1.7841797c-.9111328-.7929688-1.9619141-1.1894531-3.1513672-1.1894531-.9755859,0-1.7744141.3110352-2.3955078.9326172-.6220703.621582-.9326172,1.4628906-.9326172,2.5239258s.3105469,1.902832.9326172,2.5244141c.6210938.621582,1.4199219.9321289,2.3955078.9321289,1.1894531,0,2.2402344-.3964844,3.1513672-1.1894531v1.784668Z"/>
    <path class="cls-1" d="M331.3330078,25.4345703l2.8613281,4.0512695h-2.1542969l-2.6748047-3.8422852h-1.1992188v3.8422852h-1.9619141v-9.6464844h3.7949219c1.0820312,0,1.8964844.2763672,2.4433594.828125.546875.5522461.8203125,1.2460938.8203125,2.0820312,0,.6645508-.1689453,1.2353516-.5068359,1.7124023-.3378906.4765625-.8115234.8012695-1.4228516.9726562ZM328.1660156,21.2382812v3.0224609h1.5107422c1.1044922,0,1.65625-.4985352,1.65625-1.4951172,0-1.0180664-.5517578-1.5273438-1.65625-1.5273438h-1.5107422Z"/>
    <path class="cls-1" d="M347.7802734,29.4858398h-1.9619141l-.9648438-2.3793945h-3.9384766l-.9648438,2.3793945h-1.8974609l4.0996094-9.6464844h1.5283203l4.0996094,9.6464844ZM344.2988281,25.7397461l-1.4140625-3.4868164-1.4150391,3.4868164h2.8291016Z"/>
    <path class="cls-1" d="M358.6162109,21.3666992h-4.2119141v2.331543h3.4082031v1.5112305h-3.4082031v4.2763672h-1.9619141v-9.6464844h6.1738281v1.5273438Z"/>
    <path class="cls-1" d="M371.1884766,21.3666992h-3.2636719v8.1191406h-1.9619141v-8.1191406h-3.2636719v-1.5273438h8.4892578v1.5273438Z"/>
    <path class="cls-1" d="M382.1689453,29.4858398h-6.2861328v-9.6464844h6.2861328v1.5273438h-4.3242188v2.2670898h3.5205078v1.5273438h-3.5205078v2.7973633h4.3242188v1.5273438Z"/>
    <path class="cls-1" d="M394.9667969,21.1821289c.9101562.8950195,1.3662109,2.0551758,1.3662109,3.4804688,0,1.4257812-.4560547,2.5859375-1.3662109,3.480957-.9111328.8950195-2.2832031,1.3422852-4.1162109,1.3422852h-3.3925781v-9.6464844h3.3925781c1.8330078,0,3.2050781.4477539,4.1162109,1.3427734ZM394.3232422,24.6625977c0-2.1650391-1.1894531-3.2475586-3.5693359-3.2475586h-1.3339844v6.4951172h1.3339844c2.3798828,0,3.5693359-1.0825195,3.5693359-3.2475586Z"/>
  </g>
  <g>
    <path class="cls-1" d="M265.7382812,47.6630859c-.8574219.6542969-1.9775391.9804688-3.3603516.9804688-1.4472656,0-2.671875-.4609375-3.6738281-1.3828125-1.0019531-.9208984-1.5029297-2.1376953-1.5029297-3.6494141,0-1.5107422.5009766-2.7275391,1.5029297-3.6494141s2.2265625-1.3828125,3.6738281-1.3828125c1.3828125,0,2.5029297.3271484,3.3603516.9814453v1.7841797c-.9111328-.7929688-1.9619141-1.1894531-3.1513672-1.1894531-.9755859,0-1.7744141.3105469-2.3955078.9326172-.6220703.6210938-.9326172,1.4628906-.9326172,2.5234375,0,1.0615234.3105469,1.9033203.9326172,2.5244141.6210938.6220703,1.4199219.9326172,2.3955078.9326172,1.1894531,0,2.2402344-.3964844,3.1513672-1.1894531v1.7841797Z"/>
    <path class="cls-1" d="M279.7421875,48.4345703h-1.9619141l-.9648438-2.3789062h-3.9384766l-.9648438,2.3789062h-1.8974609l4.0996094-9.6464844h1.5283203l4.0996094,9.6464844ZM276.2607422,44.6884766l-1.4140625-3.4863281-1.4150391,3.4863281h2.8291016Z"/>
    <path class="cls-1" d="M291.5742188,45.6054688c0,.8359375-.2705078,1.5166016-.8125,2.0419922-.5410156.5244141-1.3583984.7871094-2.4511719.7871094h-3.9072266v-9.6464844h3.7460938c.9863281,0,1.7177734.2333984,2.1943359.6992188.4775391.4667969.7158203,1.0751953.7158203,1.8251953,0,.3535156-.0996094.7070312-.2978516,1.0615234-.1982422.3535156-.4414062.6318359-.7314453.8359375.4716797.203125.8466797.5253906,1.1259766.9648438.2783203.4394531.4179688.9160156.4179688,1.4306641ZM286.3652344,40.1552734v2.5078125h1.4628906c.4716797,0,.8203125-.1152344,1.0449219-.3457031.2255859-.2304688.3378906-.5332031.3378906-.9082031s-.1123047-.6777344-.3378906-.9082031c-.2246094-.2304688-.5732422-.3457031-1.0449219-.3457031h-1.4628906ZM289.2587891,46.6503906c.2783203-.2783203.4179688-.6484375.4179688-1.109375s-.1396484-.828125-.4179688-1.1015625-.7070312-.4101562-1.2861328-.4101562h-1.6074219v3.0390625h1.6074219c.5791016,0,1.0078125-.1396484,1.2861328-.4179688Z"/>
    <path class="cls-1" d="M298.5517578,48.4345703h-1.9619141v-9.6464844h1.9619141v9.6464844Z"/>
    <path class="cls-1" d="M312.2978516,48.4345703h-1.3671875l-5.0478516-6.3662109v6.3662109h-1.7529297v-9.6464844h1.3681641l5.046875,6.3652344v-6.3652344h1.7529297v9.6464844Z"/>
    <path class="cls-1" d="M324.1787109,48.4345703h-6.2861328v-9.6464844h6.2861328v1.5273438h-4.3242188v2.2675781h3.5205078v1.5273438h-3.5205078v2.796875h4.3242188v1.5273438Z"/>
    <path class="cls-1" d="M337.0566406,40.3154297h-3.2636719v8.1191406h-1.9619141v-8.1191406h-3.2636719v-1.5273438h8.4892578v1.5273438Z"/>
    <path class="cls-1" d="M346.8798828,44.3837891l2.8613281,4.0507812h-2.1542969l-2.6748047-3.8417969h-1.1992188v3.8417969h-1.9619141v-9.6464844h3.7949219c1.0820312,0,1.8964844.2763672,2.4433594.828125.546875.5527344.8203125,1.2460938.8203125,2.0820312,0,.6650391-.1689453,1.2353516-.5068359,1.7128906-.3378906.4765625-.8115234.8007812-1.4228516.9726562ZM343.7128906,40.1875v3.0224609h1.5107422c1.1044922,0,1.65625-.4990234,1.65625-1.4951172,0-1.0185547-.5517578-1.5273438-1.65625-1.5273438h-1.5107422Z"/>
    <path class="cls-1" d="M362.4423828,38.7880859l-3.7783203,5.7890625v3.8574219h-1.9619141v-3.8574219l-3.7773438-5.7890625h2.1376953l2.6533203,4.2119141,2.6523438-4.2119141h2.0742188Z"/>
  </g>
</svg>