<svg xmlns="http://www.w3.org/2000/svg" viewBox="0 0 24 24"><path d="M20.316 11.318a5.06 5.06 0 0 0-2.265-1.094V8.09a1.71 1.71 0 0 0 .99-1.544V6.49a1.712 1.712 0 0 0-1.71-1.71h-.057A1.712 1.712 0 0 0 15.564 6.49v.056c0 .673.39 1.258.99 1.544v2.134a5.054 5.054 0 0 0-2.258 1.087L8.34 7.063a1.937 1.937 0 0 0 .065-.489 1.948 1.948 0 1 0-1.948 1.948c.348 0 .672-.094.953-.256l5.898 4.19a5.069 5.069 0 0 0-.665 2.508 5.069 5.069 0 0 0 .665 2.509l-1.8 1.8a1.544 1.544 0 0 0-.445-.068 1.558 1.558 0 1 0 1.558 1.558 1.544 1.544 0 0 0-.068-.445l1.786-1.786a5.099 5.099 0 1 0 6.979-7.214zm-2.042 7.014a2.58 2.58 0 1 1 .001-5.161 2.58 2.58 0 0 1-.001 5.161z"/></svg>
